<svg version="1.1" xmlns="http://www.w3.org/2000/svg" viewBox="0 0 90.07177373026497 86" width="90.07177373026497" height="86">
  <!-- svg-source:excalidraw -->
  
  <defs>
    <style>
      @font-face {
        font-family: "Virgil";
        src: url("https://unpkg.com/@excalidraw/excalidraw@0.13.0/dist/excalidraw-assets/Virgil.woff2");
      }
      @font-face {
        font-family: "Cascadia";
        src: url("https://unpkg.com/@excalidraw/excalidraw@0.13.0/dist/excalidraw-assets/Cascadia.woff2");
      }
    </style>
  </defs>
  <rect x="0" y="0" width="90.07177373026497" height="86" fill="#ffffff"></rect><g stroke-linecap="round" transform="translate(10 10) rotate(0 27.333343505859375 25.666671752929688)"><path d="M37.71 2.28 C43.05 3.85, 49.48 8.41, 52.33 13.08 C55.17 17.75, 56.27 24.95, 54.78 30.29 C53.3 35.64, 48.28 41.6, 43.43 45.12 C38.58 48.65, 31.34 51.39, 25.66 51.45 C19.98 51.51, 13.53 49.17, 9.35 45.47 C5.17 41.76, 1.56 34.88, 0.59 29.22 C-0.39 23.56, 0.26 16.24, 3.49 11.52 C6.72 6.81, 13.67 2.22, 19.96 0.93 C26.25 -0.37, 37.36 3.1, 41.23 3.75 C45.1 4.4, 43.5 4.48, 43.16 4.82 M39.25 1.79 C44.41 3.78, 49.18 9.73, 51.76 15.24 C54.35 20.75, 56.44 29.61, 54.78 34.86 C53.13 40.1, 46.85 44.1, 41.83 46.7 C36.81 49.29, 30.4 50.91, 24.66 50.44 C18.92 49.96, 11.32 47.91, 7.37 43.85 C3.42 39.79, 1.32 31.67, 0.96 26.08 C0.6 20.49, 1.58 14.38, 5.22 10.31 C8.86 6.23, 17.01 3.04, 22.79 1.63 C28.56 0.22, 37.27 1.56, 39.89 1.85 C42.51 2.14, 38.7 2.79, 38.49 3.35" stroke="#000000" stroke-width="1" fill="none"></path></g><g stroke-linecap="round" transform="translate(36 31.333343505859375) rotate(0 22 22.333328247070312)"><path d="M18.55 0.27 C22.85 -0.85, 29.53 0.34, 33.52 2.86 C37.51 5.39, 40.89 10.54, 42.49 15.41 C44.1 20.27, 44.94 27.64, 43.17 32.05 C41.4 36.45, 36.11 39.89, 31.85 41.83 C27.6 43.76, 22.19 44.56, 17.64 43.64 C13.09 42.73, 7.39 40.16, 4.55 36.33 C1.72 32.51, 0.47 25.53, 0.65 20.69 C0.83 15.85, 2.11 10.6, 5.63 7.27 C9.14 3.94, 18.96 1.97, 21.73 0.71 C24.5 -0.54, 22.53 -0.5, 22.27 -0.24 M21.21 1 C25.57 0.32, 31.39 1.38, 35.35 4.44 C39.32 7.5, 43.93 14.53, 45.01 19.37 C46.09 24.22, 44.26 29.32, 41.82 33.51 C39.38 37.7, 34.82 42.95, 30.34 44.51 C25.86 46.07, 19.54 44.85, 14.94 42.86 C10.33 40.88, 5.26 36.43, 2.71 32.6 C0.17 28.78, -1.15 24.43, -0.34 19.93 C0.47 15.44, 3.71 8.9, 7.57 5.65 C11.43 2.4, 20.2 1.39, 22.81 0.42 C25.42 -0.55, 23.24 -0.58, 23.25 -0.18" stroke="#000000" stroke-width="1" fill="none"></path></g><g stroke-linecap="round"><g transform="translate(53.3333740234375 14) rotate(0 13.007825948493547 15.087402823222803)"><path d="M0.48 0.27 C4.65 5.01, 20.45 24.43, 24.48 29.3 M-0.72 -0.64 C3.86 4.23, 22.1 25.57, 26.74 30.81" stroke="#000000" stroke-width="1" fill="none"></path></g></g><g stroke-linecap="round"><g transform="translate(15.3333740234375 52.66668701171875) rotate(0 16.678455302985384 10.702586901662869)"><path d="M1.11 0.37 C6.23 3.93, 25.94 17.05, 30.96 20.68 M0.24 -0.47 C5.7 3.28, 27.55 18.43, 33.12 21.88" stroke="#000000" stroke-width="1" fill="none"></path></g></g></svg>